# xmcd CD database file
#
# Track frame offsets:
#	150
#	22608
#	42933
#	59613
#	77013
#	98403
#	115320
#	132270
#	153278
#	168835
#
# Disc length: 2519 seconds
#
# Revision: 0
# Processed by: cddbd v1.5.1PL2 Copyright (c) Steve Scherf et al.
# Submitted via: CDex 1.51
#
DISCID=6c09d50a
DTITLE=風うたプロジェクト - 風うた
DYEAR=2003
DGENRE=Ambient
TTITLE0=涙（なだ）そうそう
TTITLE1=童神（わらびがみ）
TTITLE2=宮古のあやぐ
TTITLE3=子守唄（多良間)
TTITLE4=島人ぬ宝
TTITLE5=島唄
TTITLE6=なりやまあやぐ
TTITLE7=花（すべての人の心に花を）
TTITLE8=安里屋ユンタ
TTITLE9=てぃんさぐぬ花
EXTD=YEAR: 2003
EXTT0=
EXTT1=
EXTT2=
EXTT3=
EXTT4=
EXTT5=
EXTT6=
EXTT7=
EXTT8=
EXTT9=
PLAYORDER=
